<?xml version="1.0" encoding="utf-8"?>
<!-- Generator: Adobe Illustrator 19.0.0, SVG Export Plug-In . SVG Version: 6.00 Build 0)  -->
<svg version="1.1" id="Layer_1" xmlns="http://www.w3.org/2000/svg" xmlns:xlink="http://www.w3.org/1999/xlink" x="0px" y="0px"
	 viewBox="0 0 400 400" style="enable-background:new 0 0 400 400;" xml:space="preserve">
<style type="text/css">
	.st0{fill:#FFFFFF;}
	.st1{fill:#F9B029;}
	.st2{font-family:'AmericanTypewriter-Bold';}
	.st3{font-size:28.3278px;}
</style>
<path id="XMLID_833_" class="st0" d="M394.2,226.3c-11.6,9.8-31.6,14.6-44.7,16c-52.5,5.4-82.4,0.8-126.5-6.9
	c-30.7-5.3-64-15.6-94.9-20.2c-30.9-4.6-62.8-6.7-93.5-1.6c-8.1,1.3-27.8,5.2-30.3,7.3c-0.3,0.3,10.2,9.6,16.1,13.6
	c14.2,9.8,30.6,17.2,47.5,23.1c42.1,14.7,88.6,20.5,134.1,20.5C286,278.1,358.7,257,394.2,226.3L394.2,226.3z"/>
<path id="XMLID_832_" class="st0" d="M219.5,104.3c0-0.7,0.2-1.4,0.7-1.9c0.5-0.5,1.2-0.8,2-0.8h18.4c0.7,0,1.3,0.2,1.9,0.7
	c0.6,0.5,0.9,1.2,0.9,2v79.3h43.3c0.7,0,1.4,0.2,1.9,0.7c0.5,0.5,0.8,1.2,0.8,2v16.3c0,0.7-0.2,1.3-0.7,1.9c-0.5,0.6-1.1,0.9-2,0.9
	h-64.6c-1.8,0-2.7-0.9-2.7-2.7V104.3z"/>
<path id="XMLID_829_" class="st0" d="M254.4,105.6c0-1.2,0.4-2,1.1-2.4c0.7-0.5,1.9-0.7,3.5-0.7h14.4c1.4,0,2.6,0.2,3.5,0.7
	c0.9,0.5,1.3,1.3,1.3,2.4v14.7c0,0.3-0.1,0.7-0.3,1.1c-0.2,0.4-0.5,0.8-1,1.1c-0.4,0.4-0.9,0.7-1.5,0.9c-0.6,0.2-1.3,0.4-2,0.4H259
	c-3.1,0-4.6-1.1-4.6-3.4V105.6z M254.4,130.3c0-0.9,0.4-1.6,1.1-2.3c0.7-0.6,1.9-0.9,3.5-0.9h14.2c0.5,0,1,0.1,1.6,0.2
	c0.6,0.1,1.1,0.4,1.6,0.7c0.5,0.3,0.9,0.6,1.3,1c0.4,0.4,0.5,0.8,0.5,1.3v47.3c0,1-0.4,1.8-1.3,2.4c-0.9,0.5-2.1,0.8-3.7,0.8H259
	c-3.1,0-4.6-1.1-4.6-3.2V130.3z"/>
<path id="XMLID_828_" class="st0" d="M295.7,107c0-3.8,0.8-7.5,2.5-10.9c1.7-3.4,3.9-6.4,6.6-8.9c2.8-2.5,6-4.5,9.6-6
	c3.6-1.5,7.4-2.2,11.3-2.2h1.2c1.4,0,2.5,0.4,3.3,1.3c0.8,0.8,1.1,2,1.1,3.5v11.8c0,1.5-0.4,2.8-1.2,3.8c-0.8,1-1.9,1.5-3.2,1.5
	h-1.2c-0.9,0-1.7,0.2-2.5,0.5c-0.8,0.3-1.5,0.7-2.1,1.3c-0.6,0.5-1.1,1.2-1.5,1.9c-0.4,0.7-0.6,1.5-0.6,2.4v7.1h9.7
	c1.4,0,2.5,0.4,3.3,1.2c0.8,0.8,1.1,2,1.1,3.6v11.3c0,1.8-0.4,3.1-1.1,3.9c-0.8,0.8-1.8,1.2-3.3,1.2H319v65.5c0,1.6-0.5,2.8-1.6,3.6
	c-1.1,0.8-2.2,1.2-3.4,1.2h-13.4c-1.5,0-2.7-0.5-3.6-1.4c-0.9-0.9-1.3-2.1-1.3-3.4v-65.5h-6.4c-1.5,0-2.6-0.4-3.5-1.2
	c-0.9-0.8-1.3-2.1-1.3-3.9v-11.3c0-1.7,0.4-2.9,1.3-3.6c0.9-0.8,2.1-1.2,3.5-1.2h6.4V107z"/>
<path id="XMLID_825_" class="st0" d="M390.1,194.9c-3.5,3.2-7.4,5.7-11.7,7.5c-4.3,1.8-9,2.7-13.8,2.7c-5.4,0-10.5-1-15.4-3
	c-4.8-2-9.1-4.7-12.7-8.2c-3.6-3.5-6.5-7.6-8.7-12.4c-2.1-4.7-3.2-9.9-3.2-15.5c0-3.5,0.4-6.8,1.3-10.1c0.9-3.3,2.1-6.3,3.6-9.2
	c1.6-2.8,3.5-5.5,5.7-7.9c2.2-2.4,4.7-4.4,7.5-6.1c2.8-1.7,5.8-3,9-4c3.2-1,6.7-1.4,10.3-1.4c3.3,0,6.5,0.4,9.6,1.3
	c3.1,0.9,6,2.1,8.7,3.7c2.7,1.6,5.2,3.5,7.4,5.7c2.3,2.2,4.2,4.6,5.8,7.3c1.6,2.6,2.9,5.4,3.8,8.4c0.9,3,1.3,6.1,1.3,9.2
	c0,2.1,0,3.7-0.1,5c-0.1,1.3-0.4,2.3-0.9,3.1c-0.6,0.8-1.5,1.3-2.8,1.6c-1.3,0.3-3.2,0.4-5.7,0.4h-42.7c0.4,2.5,1.2,4.6,2.4,6.3
	c1.2,1.7,2.6,3.1,4.2,4.1c1.6,1,3.3,1.7,5,2.2c1.8,0.4,3.5,0.7,5,0.7c1.4,0,2.9-0.1,4.4-0.4c1.5-0.3,3-0.7,4.4-1.2
	c1.4-0.5,2.7-1.1,3.9-1.7c1.2-0.6,2.1-1.3,2.8-2c0.6-0.5,1.2-0.9,1.6-1.2c0.4-0.3,0.9-0.4,1.4-0.4c0.5,0,1,0.2,1.6,0.5
	c0.5,0.3,1.1,0.9,1.8,1.5l6.3,7.1c0.4,0.5,0.7,1,0.8,1.4c0.1,0.4,0.2,0.8,0.2,1.3c0,0.8-0.2,1.5-0.6,2
	C391.2,194,390.7,194.5,390.1,194.9 M361.5,145.5c-1.5,0-3,0.3-4.5,0.9c-1.4,0.6-2.8,1.4-4.1,2.5c-1.3,1-2.4,2.2-3.4,3.5
	c-1,1.3-1.8,2.6-2.5,4h30.3c-0.8-1.5-1.7-3-2.7-4.3c-1-1.3-2.1-2.5-3.3-3.4c-1.2-1-2.7-1.8-4.3-2.3
	C365.5,145.8,363.7,145.5,361.5,145.5z"/>
<path id="XMLID_824_" class="st0" d="M65.8,135.4c-2.2-1.6-4.6-2.8-7.1-3.6c-2.5-0.9-5.2-1.3-8.1-1.3c-3.6,0-6.9,0.7-9.9,2
	c-3,1.4-5.6,3.2-7.7,5.6c-2.1,2.3-3.8,5.1-5,8.2c-1.2,3.1-1.8,6.5-1.8,10.1c0,3.6,0.6,6.9,1.8,10c1.2,3.1,2.9,5.8,5,8.2
	c2.1,2.3,4.7,4.1,7.7,5.5c3,1.3,6.3,2,9.9,2c1.5,0,3-0.1,4.5-0.3c1.5-0.2,3.1-0.5,4.8-0.8v-17c0-0.8,0.2-1.5,0.7-2
	c0.5-0.5,1.2-0.8,2.1-0.8h17.7c0.6,0,1.3,0.3,2.1,0.8c0.7,0.5,1.1,1.2,1.1,2.1v31.5c0,1.2-0.6,2.1-1.9,2.9c-2,1.4-4.3,2.6-6.8,3.6
	c-2.5,1-5.1,1.8-7.7,2.5c-2.7,0.6-5.4,1.1-8.2,1.5c-2.8,0.3-5.4,0.5-8,0.5c-4.6,0-9-0.6-13.2-1.8c-4.2-1.2-8.2-2.8-11.9-5
	c-3.7-2.2-7-4.8-10-7.8c-3-3-5.6-6.4-7.8-10c-2.2-3.7-3.8-7.6-5-11.8c-1.2-4.2-1.8-8.6-1.8-13.2c0-4.6,0.6-9,1.8-13.2
	c1.2-4.2,2.8-8.2,5-11.9c2.2-3.7,4.8-7.1,7.8-10.1c3-3,6.4-5.6,10-7.8c3.7-2.1,7.6-3.8,11.9-5c4.2-1.2,8.6-1.8,13.2-1.8
	c5.2,0,10.1,0.7,14.7,2.2c4.6,1.5,9,3.5,13,6.3c0.7,0.4,1.3,1,1.7,1.7c0.4,0.7,0.3,1.5-0.3,2.4l-10.5,15.2c-0.6,0.7-1.1,1.2-1.7,1.4
	C67.5,136.2,66.8,136,65.8,135.4"/>
<path id="XMLID_821_" class="st0" d="M87,163.5c0-4,0.5-7.8,1.5-11.5c1-3.7,2.4-7.1,4.3-10.2c1.8-3.1,4.1-6,6.6-8.6
	c2.6-2.6,5.4-4.8,8.6-6.6c3.2-1.8,6.6-3.2,10.2-4.2c3.7-1,7.5-1.5,11.5-1.5c5.9,0,11.4,1.1,16.6,3.3c5.2,2.2,9.7,5.2,13.5,9
	c3.8,3.8,6.9,8.4,9.1,13.5c2.2,5.2,3.3,10.8,3.3,16.8c0,4-0.5,7.8-1.5,11.5c-1,3.7-2.5,7.1-4.3,10.2c-1.8,3.2-4.1,6-6.6,8.6
	c-2.6,2.6-5.5,4.8-8.6,6.6c-3.2,1.8-6.6,3.3-10.2,4.3c-3.6,1-7.4,1.5-11.3,1.5c-4,0-7.8-0.5-11.5-1.5c-3.7-1-7.1-2.4-10.2-4.3
	c-3.2-1.8-6-4.1-8.6-6.6c-2.6-2.6-4.8-5.5-6.6-8.6c-1.8-3.2-3.3-6.6-4.3-10.2C87.5,171.3,87,167.5,87,163.5 M110.7,163.5
	c0,2.9,0.4,5.5,1.3,8c0.9,2.5,2.1,4.6,3.8,6.5c1.6,1.8,3.6,3.3,5.9,4.3c2.3,1.1,4.9,1.6,7.8,1.6c2.8,0,5.4-0.5,7.6-1.6
	c2.3-1.1,4.2-2.5,5.8-4.3c1.6-1.8,2.8-4,3.6-6.5c0.8-2.5,1.3-5.2,1.3-8c0-2.8-0.4-5.4-1.3-7.9c-0.8-2.5-2.1-4.7-3.6-6.6
	c-1.6-1.9-3.5-3.4-5.8-4.5c-2.3-1.1-4.8-1.7-7.6-1.7c-2.9,0-5.5,0.5-7.8,1.7c-2.3,1.1-4.3,2.6-5.9,4.5c-1.6,1.9-2.9,4.1-3.8,6.6
	C111.1,158,110.7,160.7,110.7,163.5z"/>
<path id="XMLID_818_" class="st1" d="M197.5,204.8c-1.4,0-2.5-1.1-2.5-2.5v-17.5c0-0.6-0.5-1.1-1.1-1.1h-44.6
	c-1.2,0-2.2-0.8-2.4-1.9l-3-12.9c-0.2-0.8,0-1.6,0.5-2.2l52.5-60.9c0.5-0.6,1.2-0.9,1.9-0.9h15.5c1.4,0,2.5,1.1,2.5,2.5v56.4
	c0,0.6,0.5,1.1,1.1,1.1h9.5c1.4,0,2.5,1.1,2.5,2.5v13.9c0,1.4-1.1,2.5-2.5,2.5H218c-0.6,0-1.1,0.5-1.1,1.1v17.5
	c0,1.4-1.1,2.5-2.5,2.5H197.5z M193.8,138.8c-0.2,0-0.6,0.1-0.8,0.4L172.7,163c-0.3,0.3-0.4,0.8-0.2,1.2c0.2,0.4,0.6,0.6,1,0.6h20.3
	c0.6,0,1.1-0.5,1.1-1.1V140C195,139.3,194.4,138.8,193.8,138.8z"/>
<path id="XMLID_813_" class="st0" d="M214.4,105.6c1,0,1.8,0.8,1.8,1.8v56.4c0,1,0.8,1.8,1.8,1.8h9.5c1,0,1.8,0.8,1.8,1.8v13.9
	c0,1-0.8,1.8-1.8,1.8H218c-1,0-1.8,0.8-1.8,1.8v17.5c0,1-0.8,1.8-1.8,1.8h-16.9c-1,0-1.8-0.8-1.8-1.8v-17.5c0-1-0.8-1.8-1.8-1.8
	h-44.6c-0.8,0-1.6-0.6-1.8-1.4l-3-12.9c-0.1-0.6,0-1.2,0.4-1.6l52.6-60.9c0.3-0.4,0.8-0.6,1.4-0.6H214.4z M173.6,165.5h20.3
	c1,0,1.8-0.8,1.8-1.8V140c0-1.1-0.9-1.8-1.8-1.8c-0.5,0-1,0.2-1.4,0.6l-20.3,23.8C171.2,163.7,172,165.5,173.6,165.5z M214.4,104.2
	h-15.5c-0.9,0-1.8,0.4-2.4,1.1l-52.5,60.9c-0.7,0.8-0.9,1.8-0.7,2.8l3,12.9c0.3,1.5,1.6,2.5,3.1,2.5h44.6c0.2,0,0.4,0.2,0.4,0.4
	v17.5c0,1.8,1.4,3.2,3.2,3.2h16.9c1.8,0,3.2-1.4,3.2-3.2v-17.5c0-0.2,0.2-0.4,0.4-0.4h9.5c1.8,0,3.2-1.4,3.2-3.2v-13.9
	c0-1.8-1.4-3.2-3.2-3.2H218c-0.2,0-0.4-0.2-0.4-0.4v-56.4C217.6,105.6,216.2,104.2,214.4,104.2z M173.6,164.2
	c-0.2,0-0.3-0.1-0.4-0.3c-0.1-0.1-0.1-0.3,0.1-0.5l20.3-23.8c0.1-0.1,0.2-0.2,0.3-0.2c0.1,0,0.4,0.1,0.4,0.4v23.8
	c0,0.2-0.2,0.4-0.4,0.4H173.6z"/>
<g id="XMLID_806_">
	<text id="XMLID_811_" transform="matrix(1 0 0 1 2.3486 314.1025)" class="st0 st2 st3">HONEST</text>
	<text id="XMLID_810_" transform="matrix(1 0 0 1 153.0044 314.1025)" class="st0 st2 st3">ETHICAL</text>
	<text id="XMLID_809_" transform="matrix(1 0 0 1 311.543 313.0244)" class="st0 st2 st3">PURE</text>
	<circle id="XMLID_808_" class="st0" cx="142.3" cy="303.5" r="4.8"/>
	<circle id="XMLID_807_" class="st0" cx="301.6" cy="303.5" r="4.8"/>
</g>
</svg>
