<?xml version="1.0" encoding="utf-8"?>
<!-- Generator: Adobe Illustrator 19.0.0, SVG Export Plug-In . SVG Version: 6.00 Build 0)  -->
<svg version="1.1" id="Layer_1" xmlns="http://www.w3.org/2000/svg" xmlns:xlink="http://www.w3.org/1999/xlink" x="0px" y="0px"
	 viewBox="0 0 1000 1000" style="enable-background:new 0 0 1000 1000;" xml:space="preserve">
<style type="text/css">
	.st0{fill:#FFFFFF;stroke:#FFFFFF;stroke-width:5;stroke-miterlimit:10;}
	.st1{fill:#EFA439;}
	.st2{fill:#DA6F28;}
	.st3{fill:#FFFFFF;}
	.st4{fill:none;stroke:#FFFFFF;stroke-miterlimit:10;}
	.st5{fill:#1F1611;}
	.st6{fill:#1D1D1B;}
</style>
<circle id="XMLID_29_" class="st0" cx="369.8" cy="423.4" r="112.7"/>
<path id="XMLID_3236_" class="st1" d="M326.8,498C326.8,498.1,326.7,498.1,326.8,498C326.8,498.1,326.8,498.1,326.8,498z"/>
<path id="XMLID_3233_" class="st1" d="M323.1,519C323.1,519,323,519,323.1,519C323,519,323.1,519,323.1,519z"/>
<path id="XMLID_3230_" class="st1" d="M327.4,510.9C327.4,510.9,327.3,511,327.4,510.9C327.3,511,327.4,510.9,327.4,510.9z"/>
<path id="XMLID_3227_" class="st1" d="M324.4,509.8c-0.1,0.1-0.1,0.3-0.2,0.4C324.3,510.1,324.4,509.9,324.4,509.8z"/>
<path id="XMLID_3224_" class="st1" d="M334.5,504c0,0,0-0.1,0-0.1C334.5,504,334.5,504,334.5,504z"/>
<path id="XMLID_3221_" class="st2" d="M371.7,544.6C371.6,544.5,371.6,544.5,371.7,544.6C371.6,544.5,371.6,544.5,371.7,544.6z"/>
<path id="XMLID_3218_" class="st2" d="M373.8,535.2C373.8,535.1,373.7,535.1,373.8,535.2C373.7,535.1,373.8,535.1,373.8,535.2z"/>
<path id="XMLID_3215_" class="st2" d="M384.6,545.7C384.6,545.7,384.6,545.6,384.6,545.7C384.6,545.6,384.6,545.7,384.6,545.7z"/>
<path id="XMLID_3212_" class="st2" d="M405.7,558.5c0,0,0.1,0,0.1,0C405.8,558.5,405.8,558.5,405.7,558.5z"/>
<path id="XMLID_3209_" class="st2" d="M414.1,555.4c0,0,0.1,0,0.1,0C414.2,555.4,414.2,555.4,414.1,555.4z"/>
<path id="XMLID_3206_" class="st2" d="M381.7,504.3C381.6,504.3,381.6,504.3,381.7,504.3C381.6,504.3,381.6,504.3,381.7,504.3z"/>
<path id="XMLID_3203_" class="st2" d="M438.8,507.6c0,0,0,0.1,0,0.1C438.8,507.7,438.8,507.6,438.8,507.6z"/>
<path id="XMLID_3200_" class="st2" d="M433.3,500.3C433.3,500.3,433.3,500.3,433.3,500.3C433.3,500.3,433.3,500.3,433.3,500.3z"/>
<path id="XMLID_3197_" class="st2" d="M431,502.5c0.1,0.1,0.2,0.2,0.3,0.3C431.2,502.7,431,502.5,431,502.5z"/>
<path id="XMLID_3193_" class="st3" d="M92.7,526c0-2.5,0.9-4.7,2.6-6.7c-3-2.9-7.3-4.3-13.1-4.3c-7.5,0-13.4,2.5-17.7,7.4
	c-4.3,4.9-6.4,11.8-6.4,20.6v4.8c0,2.3,1.1,3.5,3.4,3.5H82c5.8,0,8.6,3.2,8.6,9.7s-2.9,9.7-8.6,9.7H62.6c-3,0-4.5,1.6-4.5,4.8v75.2
	c0,6.6,0.1,10.5,0.3,11.6c0.9,4.8,3.1,7.3,6.5,7.3c0.9,0,3.1-0.4,6.5-1.3c2.4-0.4,4.2-0.5,5.2-0.5c5.9,0,8.9,3,8.9,8.9
	c0,6.3-3.6,9.4-10.8,9.4c-3,0-7.5-0.4-13.5-1.1s-10.6-1.1-13.5-1.1c-5.3,0-10,0.3-14.2,0.8c-6.8,0.9-11.2,1.3-13.1,1.3
	c-7.5,0-11.3-3.1-11.3-9.4c0-2.3,0.9-4.4,2.8-6.2c1.8-1.8,4-2.7,6.5-2.7c1.8,0,3.7,0.3,5.9,0.9c2.2,0.6,4.2,0.9,5.9,0.9
	c3.3,0,5.5-2.1,6.3-6.4c0.9-4.3,1.4-14.7,1.6-31.2v-56.4c0-3.2-1.6-4.8-4.7-4.8h-13c-6,0-9.1-3.3-9.1-9.9c0-6.3,3.1-9.4,9.4-9.4
	h14.9c2.3,0,3.4-1.2,3.4-3.5v-4.8c0-14.1,3.7-25,11-32.5c7.3-7.5,17.7-11.3,31.2-11.3c11,0,19.8,2.3,26.4,6.9
	c6.6,4.6,9.9,10.7,9.9,18.4c0,3.9-1.2,7.1-3.7,9.5c-2.4,2.4-5.5,3.6-9.2,3.6c-3.5,0-6.4-1.1-8.8-3.4C93.9,531.9,92.7,529.2,92.7,526
	z"/>
<path id="XMLID_3190_" class="st3" d="M213.7,688.2c-14.3,0-23.1-6.4-26.4-19.1c-8.9,13.4-22.9,20.2-41.9,20.2
	c-14.1,0-25.4-3.6-33.9-10.7c-8.5-7.2-12.7-16.7-12.7-28.8c0-14.9,6.2-25.8,18.6-32.8c4.7-2.7,8.8-4.4,12.2-5.2
	c3.4-0.8,10.3-1.8,20.6-3.1c14.7-1.6,24.2-3.9,28.7-6.7c4.5-2.9,6.7-8.1,6.7-15.9c0-7.3-2.5-13.1-7.5-17.3c-5-4.2-11.9-6.3-20.8-6.3
	c-7.9,0-15.2,2.2-22,6.7c-2.6,1.8-3.9,3.7-3.9,5.6c0,0.7,0.8,1.6,2.4,2.7c2.4,1.8,3.7,4.8,3.7,9.1c0,3.6-1.3,6.5-3.8,8.9
	c-2.5,2.3-5.7,3.5-9.6,3.5c-4.5,0-8.3-1.6-11.4-4.8c-3.1-3.2-4.6-7.2-4.6-11.8c0-10,4.8-18.6,14.5-25.8c9.7-7.2,21.4-10.7,35.2-10.7
	c31.8,0,47.6,15.6,47.6,46.9v54.2c0,8.6,0.2,13.7,0.5,15.3c1,6.3,4,9.4,8.9,9.4c6.1,0,9.2-5.7,9.2-17.1v-13.1c0-5.7,2.7-8.5,8-8.5
	c5.7,0,8.5,4.3,8.5,12.9v1.3v15.3C240,679.6,231.1,688.2,213.7,688.2z M184.4,634.8v-19.1c-3.8,3.6-7.9,6.1-12.1,7.5
	c-4.3,1.4-11.9,2.7-22.8,3.8c-19.8,2-29.7,9.5-29.7,22.6c0,6.8,2.4,12.2,7.2,16.1c4.8,3.9,11.3,5.9,19.5,5.9
	c11.7,0,20.9-3.3,27.6-9.8C180.8,655.2,184.2,646.2,184.4,634.8z"/>
<path id="XMLID_3188_" class="st3" d="M286.7,558.1v7.4c9.1-13.1,21.2-19.6,36.4-19.6c12.2,0,22.1,3.5,29.7,10.6
	c7.6,7.1,11.4,16.2,11.4,27.3c0,7.9-1.9,14.3-5.8,19.2c-3.8,4.9-8.9,7.4-15.2,7.4c-4,0-7.4-1.3-10.2-3.8c-2.8-2.5-4.2-5.6-4.2-9.1
	c0-2.9,1-5.4,3.1-7.7c2.1-2.2,4.5-3.4,7.3-3.4c0.5,0,1.7,0.3,3.4,0.8c1-2.1,1.6-4.1,1.6-5.9c0-5.2-2.2-9.6-6.7-13.2
	c-4.5-3.6-10-5.4-16.6-5.4c-13.6,0-22.7,6.3-27.2,18.8c-2.8,7.7-4.2,19.3-4.2,34.9v17.7c0,12,0.1,18.7,0.3,20.2
	c0.9,10.2,3.6,15.3,8.2,15.3c2.3,0,4.7-0.3,7.1-0.9c1.9-0.5,3.6-0.7,5-0.7c5.6,0,8.5,2.8,8.5,8.5c0,6.2-3.6,9.3-10.7,9.3h-1
	c-2.6,0-6.6-0.3-11.9-0.9c-5.3-0.6-9.3-0.9-11.9-0.9c-7,0-12.5,0.2-16.5,0.5l-14.7,1.3c-7.2,0-10.7-3.1-10.7-9.4
	c0-5.6,3.3-8.3,10-8.3c1.8,0,3.1,0.1,4,0.3l4,0.8c1.8,0.4,3,0.5,3.7,0.5c4.4,0,6.8-4.1,7.1-12.4v-13.7l-0.8-61
	c-0.5-10.6-3.1-15.9-7.9-15.9c-1.4,0-3.3,0.2-5.8,0.7c-2.4,0.4-4.4,0.7-5.8,0.7c-5.8,0-8.6-2.8-8.6-8.5c0-6.2,3.8-9.3,11.3-9.3
	c1.7,0,4.4,0.2,7.9,0.7c3.5,0.4,6.1,0.7,7.9,0.7c1.4,0,3.7-0.2,6.8-0.7c1.4-0.4,3.1-0.7,5-0.7C284.5,550.4,286.7,553,286.7,558.1z"
	/>
<path id="XMLID_3186_" class="st3" d="M417.1,558.5v7.8c6.3-7.7,12.2-13,17.8-16c5.6-3,12.6-4.4,20.9-4.4c17.1,0,29.7,6.8,37.7,20.4
	c5.9-7.5,12-12.8,18.1-15.9c6.1-3,14-4.6,23.6-4.6c9.9,0,18.9,2.1,26.7,6.4c8.7,4.8,14.7,11.6,18.1,20.4c2.3,5.9,3.4,15.2,3.4,27.9
	v26.1v20.2c0,7.3,0.1,11.8,0.3,13.4c0.9,6.4,3.1,9.7,6.7,9.7c1.2,0,3-0.3,5.4-0.9c2.4-0.6,4.2-0.9,5.4-0.9c6,0,9.1,2.7,9.1,8.2
	c0,6.4-3.5,9.5-10.5,9.5c-2.6,0-6.6-0.3-11.9-0.9c-5.3-0.6-9.4-0.9-12.2-0.9c-3,0-7.3,0.3-13,0.9c-5.7,0.6-10,0.9-13,0.9
	c-7.3,0-11-3.2-11-9.5c0-5.5,2.8-8.2,8.4-8.2c0.7,0,2.4,0.2,5.2,0.7c1,0.4,2.4,0.7,4.2,0.7c3,0,4.8-1.5,5.6-4.6
	c0.8-3,1.3-10.7,1.4-22.8v-16.4v-17.7c0-12.4-0.9-21.4-2.7-27c-1.8-5.6-5.3-10.1-10.3-13.3c-5-3.2-10.8-4.8-17.2-4.8
	c-12.3,0-20.9,4.4-25.8,13.2c-3.8,7-5.7,19.2-5.7,36.5v19.1c0,16.8,0.4,27.4,1.2,31.6c0.8,4.2,2.8,6.3,6.2,6.3c1,0,2.6-0.2,4.6-0.7
	c2-0.4,3.5-0.7,4.6-0.7c2.4,0,4.5,0.9,6.2,2.6c1.7,1.7,2.5,3.8,2.5,6.3c0,5.9-4.1,8.9-12.3,8.9c-2.6,0-6.5-0.4-11.7-1.1
	c-5.1-0.7-9-1.1-11.7-1.1c-3.7,0-7.7,0.4-12,1.1c-4.4,0.7-8.2,1.1-11.5,1.1c-7.2,0-10.7-3.1-10.7-9.3c0-5.6,2.6-8.5,7.9-8.5
	c1.9,0,3.4,0.3,4.5,0.8c2.4,0.8,4.3,1.1,5.5,1.1c4.2,0,6.4-4.6,6.5-13.7l0.8-12.7c0-3.9,0-7.8,0-11.6c0-3.2,0-4.9,0-5.1v-22.4
	c0-15.6-2.1-26.5-6.2-32.6c-4.1-6.1-11.4-9.2-21.9-9.2c-11.5,0-20.3,4.3-26.4,12.9c-5.1,7-7.6,19.2-7.6,36.6v35.8
	c0,7.2,0.1,11.4,0.3,12.7c0.7,6.1,2.6,9.2,5.8,9.2c0.9,0,2.7-0.5,5.5-1.5c0.3,0,0.9-0.1,1.6-0.4c0.7,0,1.3,0,1.8,0
	c6.8,0,10.2,3,10.2,9c0,5.8-3.9,8.7-11.8,8.7c-3,0-6.6-0.3-11-0.8c-5.9-0.7-11-1.1-15.2-1.1c-2.1,0-5.9,0.3-11.5,0.8
	c-7.5,0.7-12,1.1-13.6,1.1c-7,0-10.5-3.1-10.5-9.3c0-5.6,3.4-8.5,10.1-8.5c0.4,0,0.9,0,1.6,0c0.7,0.2,1.2,0.3,1.6,0.3l6.7,1.3
	c0.2,0.2,0.5,0.3,1.1,0.3c4.8,0,7.4-4.4,7.7-13.1v-15.3v-41c0-15.2-0.4-24.7-1.2-28.4c-0.8-3.8-2.9-5.6-6.4-5.6
	c-0.7,0-3.1,0.4-7.3,1.3c-1.7,0.4-3.1,0.5-4.2,0.5c-6.5,0-9.7-2.9-9.7-8.6c0-6.1,3.6-9.1,10.7-9.1c1.9,0,4.5,0.2,7.9,0.5
	c3.3,0.4,6.2,0.5,8.6,0.5c0.9,0,1.8,0,2.9,0s1.7,0,1.8,0l6.3-1.1h0.8C415,550.7,417.1,553.3,417.1,558.5z"/>
<path id="XMLID_3183_" class="st3" d="M738.1,605.5c0,6.8-0.4,10.9-1.3,12.4c-0.9,1.5-3.4,2.3-7.6,2.3h-83.5c-2.3,0-3.8,0.3-4.5,0.9
	c-0.7,0.6-1,1.7-1,3.1c0,13.5,3.9,24.8,11.8,33.8c7.9,9,17.7,13.5,29.4,13.5c7.7,0,14.7-2.1,21.1-6.4c6.4-4.3,10.5-9.8,12.5-16.4
	l2.4-7.8c1.2-4.3,4.1-6.4,8.7-6.4c6.5,0,9.7,3.4,9.7,10.2c0,11.6-5.8,22-17.3,31c-11.5,9-24.6,13.6-39.3,13.6
	c-18.3,0-32.9-6.3-43.7-18.9c-10.8-12.6-16.2-29.6-16.2-50.9c0-21.9,5.8-39.6,17.3-53.2c11.5-13.6,26.5-20.4,45-20.4
	c16.4,0,29.9,5.6,40.6,16.9C732.8,573.9,738.1,588.2,738.1,605.5z M643.1,598.8c0,2.5,1.9,3.8,5.8,3.8h62.8c3.7,0,5.5-1.3,5.5-3.8
	c0-9.5-3.5-17.7-10.5-24.7c-7-7-15.2-10.5-24.7-10.5c-9.8,0-18.7,3.6-26.8,10.9C647.1,581.7,643.1,589.8,643.1,598.8z"/>
<path id="XMLID_3181_" class="st3" d="M795.4,558.1v7.4c9.1-13.1,21.2-19.6,36.4-19.6c12.2,0,22.1,3.5,29.7,10.6
	c7.6,7.1,11.4,16.2,11.4,27.3c0,7.9-1.9,14.3-5.8,19.2c-3.8,4.9-8.9,7.4-15.2,7.4c-4,0-7.4-1.3-10.2-3.8c-2.8-2.5-4.2-5.6-4.2-9.1
	c0-2.9,1-5.4,3.1-7.7c2.1-2.2,4.5-3.4,7.3-3.4c0.5,0,1.7,0.3,3.4,0.8c1-2.1,1.6-4.1,1.6-5.9c0-5.2-2.2-9.6-6.7-13.2
	c-4.5-3.6-10-5.4-16.6-5.4c-13.6,0-22.7,6.3-27.2,18.8c-2.8,7.7-4.2,19.3-4.2,34.9v17.7c0,12,0.1,18.7,0.3,20.2
	c0.9,10.2,3.6,15.3,8.2,15.3c2.3,0,4.7-0.3,7.1-0.9c1.9-0.5,3.6-0.7,5-0.7c5.6,0,8.5,2.8,8.5,8.5c0,6.2-3.6,9.3-10.7,9.3h-1
	c-2.6,0-6.6-0.3-11.9-0.9c-5.3-0.6-9.3-0.9-11.9-0.9c-7,0-12.5,0.2-16.5,0.5l-14.7,1.3c-7.2,0-10.7-3.1-10.7-9.4
	c0-5.6,3.3-8.3,10-8.3c1.8,0,3.1,0.1,4,0.3l4,0.8c1.8,0.4,3,0.5,3.7,0.5c4.4,0,6.8-4.1,7.1-12.4v-13.7l-0.8-61
	c-0.5-10.6-3.1-15.9-7.9-15.9c-1.4,0-3.3,0.2-5.8,0.7c-2.4,0.4-4.4,0.7-5.8,0.7c-5.8,0-8.6-2.8-8.6-8.5c0-6.2,3.8-9.3,11.3-9.3
	c1.7,0,4.4,0.2,7.9,0.7c3.5,0.4,6.1,0.7,7.9,0.7c1.4,0,3.7-0.2,6.8-0.7c1.4-0.4,3.1-0.7,5-0.7C793.2,550.4,795.4,553,795.4,558.1z"
	/>
<path id="XMLID_3180_" class="st1" d="M265.8,471.7C265.9,471.7,265.9,471.6,265.8,471.7C265.9,471.6,265.9,471.7,265.8,471.7z"/>
<path id="XMLID_3177_" class="st1" d="M274.8,469.7C274.9,469.7,274.9,469.7,274.8,469.7C274.9,469.7,274.9,469.7,274.8,469.7z"/>
<path id="XMLID_3174_" class="st1" d="M270.1,483.4C270.1,483.3,270.1,483.3,270.1,483.4C270.1,483.3,270.1,483.3,270.1,483.4z"/>
<path id="XMLID_3171_" class="st1" d="M304.9,464C304.8,464,304.8,464,304.9,464C304.8,464,304.8,464,304.9,464z"/>
<path id="XMLID_3168_" class="st1" d="M313,459.9C312.9,459.9,312.9,459.9,313,459.9C312.9,459.9,312.9,459.9,313,459.9z"/>
<path id="XMLID_1695_" class="st2" d="M381,491.8C381,491.8,381,491.8,381,491.8C381,491.8,381,491.8,381,491.8z"/>
<path id="XMLID_1692_" class="st2" d="M419.3,492.3C419.3,492.3,419.3,492.4,419.3,492.3C419.3,492.3,419.3,492.3,419.3,492.3z"/>
<path id="XMLID_166_" class="st2" d="M427.6,488.1C427.6,488,427.5,488,427.6,488.1C427.5,488,427.6,488,427.6,488.1z"/>
<g id="XMLID_151_">
	<g id="XMLID_33_">
		<path id="XMLID_40_" class="st4" d="M376.6,346.7"/>
	</g>
</g>
<g id="XMLID_144_">
	<g id="XMLID_27_">
		<path id="XMLID_32_" class="st4" d="M394.6,400.1"/>
	</g>
</g>
<g id="XMLID_161_">
	<path id="XMLID_25_" class="st5" d="M295.2,384.2c-3.7,3.4-4.4,7.4-6,12.1c-0.3,1-0.6,2-0.2,2.9c0.4,0.8,1.2,1.2,1.8,1.9
		c1.8,1.8,1.9,4.6,2.4,7c1,4.5,3.9,8.4,7.9,10.6c1.3,0.7,2.7,1.3,3.8,2.3c1.7,1.5,2.3,3.9,3.3,5.9c2,4,5.6,7,8.4,10.6
		c2.1,2.6,3.7,5.6,6.1,8c2.4,2.3,5.9,3.9,9.1,3c1-0.3,2.1-1,2.4-2c0.3-1.1-0.2-2.3-0.7-3.3c-1.5-2.9-3-5.8-4.5-8.7
		c-0.6-1.2-1.3-2.6-0.8-3.9c0.4-1.2,1.6-1.8,2.6-2.4c17.7-9.7,35.5-19.5,53.2-29.2c14.3-7.8,28.5-15.7,42.8-23.5
		c1.4-0.8,2.9-1.5,4.4-1.4c1.1,0.1,2.2,0.6,3.3,0.6c2.8-0.2,4-3.7,4-6.6c0.1-7.9-2.8-15.5-5.6-22.8c-1-2.5-1.9-5-3.5-7.2
		c-1.6-2.2-3.9-3.9-6.3-5.3c-11.8-6.9-26.5-6.4-40-4.4c-14.5,2.1-28.8,5.7-42.1,11.9c-3.6,1.7-7.1,3.6-10.3,6
		c-3.6,2.7-6.6,6.1-9.6,9.4C312.6,365.2,303.9,374.7,295.2,384.2L295.2,384.2z"/>
</g>
<g id="XMLID_158_">
	<path id="XMLID_19_" class="st5" d="M380.7,400.9c4.9,3.2,9.2,7.3,12.6,12c1.2,1.6,2.3,3.4,3.2,5.2c2.9,6,3.3,12.9,2.6,19.5
		c-0.2,1.5-0.4,3,0,4.5c0.3,1.2,1.1,2.3,1.9,3.3c1.8,2.3,3.8,4.5,6,6.5c0.9,0.8,2,1.6,3.1,1.3c1.3-0.3,1.8-1.8,2.8-2.6
		c1.2-1,2.9-1.1,4.2-2c1.6-1,2.4-3,4-4c1-0.6,2.2-0.7,3.2-1.1c1.3-0.5,2.4-1.4,3.4-2.2c1.7-1.4,3.4-2.8,5.1-4.1
		c1.7-1.4,3.4-2.8,5.1-4.1c2.2-1.8,4.5-3.6,6.7-5.5c0.7-0.6,1.4-1.2,1.8-2c0.3-0.6,0.4-1.2,0.7-1.8c0.4-0.6,1.1-1,1.7-1.4
		c1.8-1.1,3.4-2.5,4.4-4.2c1-1.8,1.4-4.1,0.6-6c-0.9-2.1-3.1-3.6-3.5-5.8c-0.3-1.4,0.2-2.9-0.1-4.4c-0.5-2.8-3.4-4.4-5-6.8
		c-2.6-3.9-1.5-9.9-5.1-12.8c-0.5-0.4-1-0.7-1.3-1.2c-0.3-0.6-0.2-1.3-0.3-2c-0.3-2.7-3-4.6-5.7-4.8c-2.7-0.2-5.3,0.8-7.8,1.9
		c-9,4-17.6,8.7-26.1,13.5c-1.9,1-3.7,2.1-5.6,3.1c-4,2.2-8,4.5-12,6.7c-0.3,0.2-0.6,0.4-0.7,0.7s0.5,0.7,0.7,0.4"/>
</g>
<path id="XMLID_143_" class="st6" d="M436.8,471.7c-2.6-2.5-5.9-4.4-9.2-5.9c-1.3,2.4-2.3,4.9-2.9,7.6c1-1.2,2.3-2.5,3.8-2.9
	c0.9,1.2,1.8,2.3,2.6,3.6c1.7,2.6-2.7,4.1-4,4.9c-1.7,1-3.2,1.9-5,2.8c-0.1,0.1-0.3,0.2-0.5,0.3c-8.3-5.9-18.4-9.5-28.2-11.7
	c-5.2-1.2-11.6-3-17-2.6c-2.5,0.2-5.6,6.6-6.6,9.2c-1-2.6-4.1-9-6.6-9.2c-5.4-0.3-11.8,1.4-17,2.6c-9.8,2.2-19.9,5.8-28.2,11.7
	c-0.2-0.1-0.3-0.2-0.5-0.3c-1.7-0.9-3.3-1.8-5-2.8c-1.3-0.8-5.7-2.3-4-4.9c0.8-1.2,1.7-2.4,2.6-3.6c1.5,0.4,2.8,1.6,3.8,2.9
	c-0.7-2.7-1.6-5.2-2.9-7.6c-3.3,1.5-6.7,3.4-9.2,5.9c-1.9,1.9-3.4,4-4.6,6.3c0.5,0.9,1.4,1.8,1.9,2.5c2,2.7,4.2,5.1,6.7,7.4
	c7.6,7.2,11.8,9.4,21.9,7.6c3.7-0.6,15.2-2.9,19.5-5.8c-0.8,1-3.2,3.3-2.8,3.3c4.5,0.4,9.2-1.2,12.4-4.3c-0.3,0.6-1.3,2.4-0.9,2.3
	c2.1-0.4,4-2.6,5.4-4.1c0.2-0.3,0.5-0.5,0.7-0.8c0,0.1-0.1,0.3-0.1,0.4c-0.3,1.4-2.1,4.6-1.6,4.4c1.5-0.5,3.1-1.3,4.4-2.3
	c0,0.7,0.6,2.5,0.9,2.4c1.5-0.8,2.5-2.8,3.1-4.5c0.6,1.8,1.6,3.8,3.1,4.5c0.3,0.2,0.9-1.6,0.9-2.4c1.3,1,2.9,1.8,4.4,2.3
	c0.6,0.2-1.2-3-1.6-4.4c0-0.1-0.1-0.3-0.1-0.4c0.2,0.3,0.5,0.5,0.7,0.8c1.4,1.5,3.3,3.7,5.4,4.1c0.5,0.1-0.6-1.7-0.9-2.3
	c3.2,3.1,7.9,4.6,12.4,4.3c0.4,0-2-2.3-2.8-3.3c4.3,2.9,15.8,5.2,19.5,5.8c10.1,1.7,14.3-0.4,21.9-7.6c2.5-2.3,4.6-4.7,6.7-7.4
	c0.5-0.7,1.3-1.6,1.9-2.5C440.2,475.7,438.7,473.5,436.8,471.7z"/>
<path id="XMLID_132_" class="st0" d="M242.3,319.6V526h-21.8v-95.4h-63.4V526h-21.8V319.6h21.8v91.6h63.4v-91.6H242.3z"/>
<path id="XMLID_67_" class="st0" d="M616.5,319.6V526h-21.8L524,367.4V526h-21.8V319.6H524l70.6,158.9V319.6H616.5z"/>
<path id="XMLID_62_" class="st0" d="M673.9,339v72.1h60.4v19.7h-60.4v75.7h70.3V526h-91.9V319.6h91.9V339H673.9z"/>
<path id="XMLID_38_" class="st0" d="M777,513.1c-9.1-10-13.8-24.5-14.2-43.7H784c0.6,14,3.7,24,9.4,30.1c5.7,6.1,13.8,9.1,24.4,9.1
	c10.8,0,18.8-3,24.1-9.1c5.3-6.1,7.9-15.4,7.9-28c0-11-2.3-19.2-7-24.8c-4.7-5.6-13.1-10.9-25.3-15.9l-12-4.8
	c-13.6-5.4-23.7-12.3-30.5-20.6c-6.8-8.4-10.2-19.6-10.2-33.8c0-16.8,4.7-30.1,14.2-40.1c9.5-10,22.5-15,39-15
	c15.8,0,28.2,4.6,37.4,13.9c9.2,9.3,14.2,23.2,15,41.7h-20.6c-1.4-24.1-12.1-36.2-32-36.2c-10.4,0-18.2,3-23.3,9
	c-5.2,6-7.8,14.5-7.8,25.4c0,9.8,2.3,17.5,7,23c4.7,5.6,12.7,10.6,24.1,15l12.3,4.8c13.8,5.4,24.1,12.5,31.1,21.2
	c7,8.8,10.5,21,10.5,36.8c0,18.2-4.7,32.2-14.1,42c-9.4,9.9-22.9,14.8-40.7,14.8C799.4,528.1,786.1,523.1,777,513.1z"/>
<path id="XMLID_35_" class="st0" d="M990.8,339h-42.5v187h-21.5V339h-42.5v-19.4h106.5V339z"/>
</svg>
